Coordinates
version=1
nRows=8
nColumns=36
inDegrees=yes

Units are S.I. units (second, meters, Newtons, ...)
If the header above contains a line with 'inDegrees', this indicates whether rotational values are in degrees (yes) or radians (no).

endheader
time	pelvis_tilt	pelvis_list	pelvis_rotation	pelvis_tx	pelvis_ty	pelvis_tz	hip_flexion_r	hip_adduction_r	hip_rotation_r	knee_angle_r	knee_angle_r_beta	ankle_angle_r	subtalar_angle_r	mtp_angle_r	hip_flexion_l	hip_adduction_l	hip_rotation_l	knee_angle_l	knee_angle_l_beta	ankle_angle_l	subtalar_angle_l	mtp_angle_l	lumbar_extension	lumbar_bending	lumbar_rotation	arm_flex_r	arm_add_r	arm_rot_r	elbow_flex_r	pro_sup_r	arm_flex_l	arm_add_l	arm_rot_l	elbow_flex_l	pro_sup_l
      2.65833333	    -82.50944973	      1.52787003	   -183.26580933	      0.93479699	      0.39264821	     -0.61406042	     15.20806901	     -2.63780596	    -12.31361467	      9.97620316	      0.17411759	     34.39083144	      4.32467095	     -7.49999987	     14.21822956	     -8.04412105	    -14.64880537	     14.06920190	      0.24555390	     35.07700676	      0.05983738	     -7.49999987	    -14.70068289	      3.23586001	     -2.69852738	    -23.73110961	    -15.17339810	    -18.03003768	     15.25456373	     99.24848984	    -29.99891168	    -13.18306340	    -25.93782163	     26.26193988	    110.06286643
      2.66666667	    -82.71326332	      1.65661340	   -183.21576604	      0.93491773	      0.39323589	     -0.61364425	     15.00740424	     -2.52265613	    -12.42270384	     10.15267372	      0.17719758	     34.41976983	      4.16845222	     -7.49999987	     14.05484427	     -8.14241209	    -14.40958504	     14.24569759	      0.24863433	     35.05245290	     -0.15921052	     -7.49999987	    -14.70439496	      3.40522434	     -2.74603700	    -23.51745158	    -15.15883318	    -17.65374903	     15.03462433	     99.51523194	    -29.73393026	    -12.94883448	    -26.01967098	     26.32496017	    110.63799836
      2.67500000	    -82.92495503	      1.75227224	   -183.13294478	      0.93501119	      0.39394548	     -0.61313618	     14.72141466	     -2.44505923	    -12.56629378	     10.10667635	      0.17639478	     34.53129103	      4.07954558	     -7.49999987	     13.88262814	     -8.19202876	    -14.15485258	     14.41931479	      0.25166452	     35.08206604	     -0.18845971	     -7.49999987	    -14.71117768	      3.58653033	     -2.78508720	    -23.54301297	    -14.82275930	    -20.20521779	     15.68459701	    101.59854969	    -29.22399316	    -13.00731780	    -25.37999565	     26.20170720	    111.14193119
      2.68333333	    -83.09107840	      1.78705984	   -183.09035191	      0.93493119	      0.39487274	     -0.61274840	     14.36999545	     -2.44004107	    -12.64351398	      9.69046274	      0.16913048	     34.74968347	      4.66409375	     -7.49999987	     13.75786045	     -8.20355781	    -14.05928891	     14.58809786	      0.25461034	     35.26184172	     -0.06534944	     -7.49999987	    -14.61096531	      3.67859603	     -2.88073459	    -23.27493571	    -14.85676215	    -18.89574341	     15.26071871	    100.95482122	    -28.86460193	    -13.01644466	    -24.37151872	     25.89449387	    110.29386427
      2.69166667	    -83.33838227	      1.70337841	   -183.22266675	      0.93525657	      0.39565979	     -0.61260119	     14.16976199	     -2.55320657	    -12.32565812	     10.00426509	      0.17460737	     34.79551056	      4.36939068	     -7.49999987	     13.39647658	     -8.07971620	    -14.04999981	     14.52439127	      0.25349845	     35.35661346	     -0.13929729	     -7.49999987	    -14.63405744	      3.59784065	     -2.74055302	    -23.00554998	    -14.70940424	    -18.41049113	     14.99909943	     99.26542606	    -28.41059617	    -13.13319306	    -22.81846202	     25.52434423	    109.80316636
      2.70000000	    -83.54015260	      1.74107009	   -183.13861279	      0.93538379	      0.39640455	     -0.61224319	     13.96185086	     -2.56309337	    -12.34158505	     10.14786302	      0.17711362	     34.90436528	      4.22108165	     -7.49999987	     13.24619167	     -8.09633393	    -13.91308444	     14.74424734	      0.25733566	     35.46896842	     -0.25356913	     -7.49999987	    -14.60647819	      3.67400100	     -2.80638589	    -22.72454849	    -14.59494944	    -18.10062937	     14.79575859	     99.57463328	    -28.01650777	    -13.00939141	    -22.72090481	     25.47006109	    110.35527011
      2.70833333	    -83.74334907	      1.72868034	   -183.09099042	      0.93534618	      0.39724427	     -0.61176218	     13.62471797	     -2.61066116	    -12.28132997	      9.84526195	      0.17183224	     34.93732045	      4.41674509	     -7.49999987	     13.07942415	     -8.07096969	    -13.96455634	     14.99255348	      0.26166942	     35.60733564	     -0.19611254	     -7.49999987	    -14.57748182	      3.70468244	     -2.88569033	    -22.37829991	    -14.54541541	    -17.16155720	     14.47568505	     99.04657965	    -27.64829372	    -12.90175527	    -22.18845089	     25.30710880	    110.18888598
      2.71666667	    -84.01512976	      1.81902947	   -183.14846375	      0.93550726	      0.39805287	     -0.61126403	     13.39075999	     -2.60362040	    -12.32685739	     10.20036260	      0.17802991	     34.95033740	      4.36243444	     -7.49999987	     12.79209774	     -8.17285056	    -14.23698719	     15.17525690	      0.26485820	     35.73309917	      0.07569751	     -7.49999987	    -14.64664511	      3.85184618	     -2.70037728	    -22.04184602	    -14.52072769	    -15.93085529	     14.07695742	     97.53620881	    -27.00792681	    -12.99701249	    -20.55145013	     24.96282294	    109.20063513
